<?xml version="1.0" encoding="utf-8"?>
<!-- Creator: CorelDRAW --><svg height="210mm" id="svg2" inkscape:output_extension="org.inkscape.output.svg.inkscape" inkscape:version="0.47 r22583" sodipodi:docname="Belgia_regioner_og_provinser.svg" sodipodi:version="0.32" style="shape-rendering: geometricprecision; text-rendering: geometricprecision; fill-rule: evenodd; clip-rule: evenodd;" version="1.1" viewBox="0 0 260 210" width="260mm" xml:space="preserve" xmlns="http://www.w3.org/2000/svg" xmlns:cc="http://creativecommons.org/ns#" xmlns:dc="http://purl.org/dc/elements/1.1/" xmlns:inkscape="http://www.inkscape.org/namespaces/inkscape" xmlns:rdf="http://www.w3.org/1999/02/22-rdf-syntax-ns#" xmlns:sodipodi="http://sodipodi.sourceforge.net/DTD/sodipodi-0.dtd" xmlns:svg="http://www.w3.org/2000/svg"><metadata id="metadata433"><rdf:RDF><cc:Work rdf:about=""><dc:format>image/svg+xml</dc:format><dc:type rdf:resource="http://purl.org/dc/dcmitype/StillImage"/></cc:Work></rdf:RDF></metadata><sodipodi:namedview bordercolor="#666666" borderopacity="1.0" gridtolerance="10.0" guidetolerance="10.0" id="base" inkscape:current-layer="Layer_x0020_1" inkscape:cx="589.76252" inkscape:cy="402.33953" inkscape:pageopacity="0.0" inkscape:pageshadow="2" inkscape:window-height="633" inkscape:window-maximized="0" inkscape:window-width="930" inkscape:window-x="266" inkscape:window-y="87" inkscape:zoom="0.50396825" objecttolerance="10.0" pagecolor="#ffffff" showgrid="false"/>

<g id="Layer_x0020_1">
<metadata id="CorelCorpID_0Corel-Layer"/>
<polygon class="fil0 str0" id="polygon10" points="59.4238,25.2524 57.1491,21.0062 59.4238,19.4899 58.2106,14.9403 40.1643,20.8545 29.0937,28.1339 19.3885,35.1097 4.83,42.8437 6.0432,52.2459 9.6828,57.25 6.65,60.5866 8.1663,66.3493 6.9534,67.5624 9.5311,71.9602 14.5357,71.5055 19.3885,81.2107 23.0277,81.6658 23.9379,77.4194 27.1224,78.3295 30.1556,76.0548 29.3971,73.325 33.6435,72.2635 35.1598,75.9031 41.2258,74.2349 44.7137,78.4812 48.0499,77.5714 54.1159,78.9364 53.9646,81.9692 56.8461,83.1823 62.76,77.4194 66.8544,74.3866 66.551,68.9274 63.2151,67.5624 64.428,62.7099 60.637,64.2262 62.76,58.6153 60.637,58.3119 62.76,52.3975 60.9404,50.1228 62.4566,48.3033 55.4808,42.5406 59.1204,40.4173 60.0302,35.5645 58.0589,33.2901 58.0589,29.6504 60.0302,29.8018"/>
<polygon class="fil1 str0" id="polygon12" points="26.819,84.2439 23.0277,81.6658 23.9379,77.4194 27.1224,78.3295 30.1556,76.0548 29.3971,73.325 33.6435,72.2635 35.1598,75.9031 29.5492,78.9364 28.7904,83.0307"/>
<polygon class="fil1 str0" id="polygon14" points="62.76,77.4194 56.8461,83.1823 53.9646,81.9692 54.1159,78.9364 48.0499,77.5714 44.7137,78.4812 46.0789,82.5759 49.5665,82.7273 49.4148,86.3669 47.8982,87.5801 51.2348,92.4329 50.9314,100.319 57.1491,105.171 62.76,104.111 63.2151,101.228 67.1578,102.29 64.8831,105.475 72.769,105.778 75.4985,109.417 76.7117,116.545 76.257,120.488 78.5317,124.735 80.503,125.189 81.2611,121.095 85.8109,120.033 88.6921,120.792 90.8154,122.611 95.8196,121.397 100.369,121.247 106.283,125.947 107.345,130.194 109.923,128.678 113.26,128.525 113.108,130.8 108.861,133.984 108.861,139.595 106.283,143.083 111.137,143.083 110.832,146.723 113.715,149.149 111.287,150.97 107.649,152.182 107.042,155.215 108.406,157.339 107.345,159.31 112.198,161.13 119.629,159.916 121.903,162.495 128.121,162.495 124.785,152.334 124.026,150.817 124.178,141.719 122.207,139.899 124.481,138.534 124.481,132.165 122.207,131.407 120.69,133.227 117.353,131.103 118.112,129.435 126.452,125.037 128.576,124.735 129.941,122.763 132.518,124.582 137.523,123.673 137.068,118.669 138.736,112.905 136.462,112.148 137.826,105.778 134.793,105.323 136.158,101.683 131.761,102.29 129.334,101.38 129.334,99.7118 119.932,99.8638 118.719,97.2857 114.927,95.314 115.382,92.5846 111.592,92.2812 111.743,88.7933 109.62,89.0967 107.497,92.2812 104.766,90.1582 104.918,83.334 102.188,83.4857 100.369,85.6088 97.943,85.9121 92.4833,84.699 90.3604,82.5759 92.0282,80.1495 87.0241,79.8462 83.8396,79.3911 83.2328,76.3583 78.0763,75.7514 75.1951,82.1209 72.4657,80.3012 69.1291,81.3624 68.6744,77.8745"/>
<polygon class="fil2 str0" id="polygon16" points="163.152,91.068 161.483,89.8548 157.996,92.1295 154.66,92.888 147.38,96.2242 146.319,93.7978 143.741,95.314 140.814,94.8847 142.073,98.8023 136.31,97.8921 136.158,101.683 134.793,105.323 137.826,105.778 136.462,112.148 138.736,112.905 137.068,118.669 137.523,123.673 132.518,124.582 129.924,122.787 128.576,124.735 126.452,125.037 118.112,129.435 117.353,131.103 120.69,133.227 122.207,131.407 124.481,132.165 124.481,138.534 122.207,139.899 124.178,141.719 124.026,150.817 128.121,162.495 133.277,161.585 137.372,157.946 143.286,157.642 144.347,150.666 142.528,149.453 148.29,144.752 148.745,142.174 152.082,139.748 156.782,140.961 156.177,146.268 153.598,146.116 153.598,152.789 149.958,160.221 154.66,162.343 156.782,165.68 154.356,172.352 155.114,177.66 159.36,178.267 162.545,177.053 163.607,171.594 168.308,169.167 168.914,165.68 171.947,164.011 171.341,160.978 168.156,157.642 164.516,159.462 164.668,155.367 163,153.396 166.792,151.122 167.701,146.875 182.715,145.965 180.591,142.781 183.018,141.112 179.226,133.379 182.411,131.103 185.596,131.255 190.297,126.251 189.235,122.611 189.994,117.152 187.264,116.393 184.686,118.517 182.715,117.607 181.804,114.877 178.619,115.332 178.467,109.57 177.103,107.446 174.677,108.053 169.825,101.987 167.398,101.683 165.578,96.0725 163.455,95.1627"/>
<polygon class="fil3 str0" id="polygon18" points="231.697,136.714 228.209,137.776 228.209,142.174 223.963,143.842 223.052,148.087 220.475,149.149 221.536,152.638 218.958,154.912 220.324,158.4 216.077,159.916 213.499,166.589 216.684,167.803 213.651,172.958 214.561,176.143 217.291,177.053 220.778,181.906 219.414,184.18 223.812,184.029 222.598,189.185 225.328,190.246 225.024,193.431 221.081,197.374 224.115,199.193 219.565,202.681 216.229,201.469 215.623,203.592 208.04,201.923 205.916,206.018 202.884,204.956 196.515,208.596 195.301,204.654 193.784,198.283 187.871,194.341 186.809,196.312 184.535,194.796 186.354,191.915 182.411,187.668 176.648,188.123 171.644,186.152 171.492,181.906 165.881,180.238 162.545,177.053 163.607,171.594 168.308,169.167 168.914,165.68 171.947,164.011 171.341,160.978 168.156,157.642 164.516,159.462 164.668,155.367 163,153.396 166.792,151.122 167.701,146.875 182.715,145.965 180.591,142.781 183.018,141.112 179.226,133.379 182.411,131.103 185.596,131.255 190.297,126.251 189.235,122.611 189.994,117.152 192.572,115.028 190.903,112.603 192.42,111.693 195.453,114.574 198.032,113.512 200.457,116.243 203.188,114.877 207.888,119.426 211.376,119.124 210.315,124.128 213.499,125.342 211.832,129.284 221.081,128.374 220.172,120.185 231.09,122.611 230.635,131.103 232.456,133.834"/>
<polygon class="fil4 str0" id="polygon20" points="240.645,141.263 237.763,141.719 237.915,138.534 233.668,140.051 231.697,136.714 232.456,133.834 230.635,131.103 231.09,122.611 220.172,120.185 221.081,128.374 211.832,129.284 213.499,125.342 210.315,124.128 211.376,119.124 207.888,119.426 203.188,114.877 200.457,116.243 198.032,113.512 195.453,114.574 192.42,111.693 190.903,112.603 192.572,115.028 189.994,117.152 187.264,116.393 184.686,118.517 182.715,117.607 181.804,114.877 178.619,115.332 178.467,109.57 177.103,107.446 174.677,108.053 169.825,101.987 167.398,101.683 165.578,96.0725 163.455,95.1627 163.152,91.068 163.455,81.5141 166.185,79.6945 167.549,83.6374 171.644,83.6374 174.222,85.3054 176.193,82.1209 181.35,83.4857 182.108,81.5141 184.231,82.5759 187.719,79.2398 191.359,82.4239 193.937,80.3012 195.453,81.8175 198.487,77.5714 202.126,77.5714 207.888,72.8703 209.254,76.9647 208.798,78.7843 215.016,79.0877 216.684,82.1209 221.233,82.2726 222.902,80.7559 221.688,78.0261 230.94,77.4194 232.001,80.7559 237.612,80.4526 241.251,89.7035 247.469,90.3095 246.255,92.7363 240.341,98.3472 244.284,103.2 250.501,103.352 252.473,105.02 252.17,107.901 254.596,107.901 255.658,110.631 252.473,115.787 256.87,120.792 255.051,122.308 250.199,122.005 248.985,128.071 243.678,128.374 241.555,132.772 243.526,134.136 242.919,136.867 240.796,136.714"/>
<polygon class="fil5 str0" id="polygon24" points="207.888,72.8703 204.806,68.6607 206.937,64.5857 213.789,56.7145 210.177,55.9737 213.881,49.8618 212.214,48.9361 214.9,46.2504 215.641,42.5466 217.215,42.1758 215.918,40.2313 218.788,38.3792 217.123,35.3235 214.066,35.9716 212.214,32.3601 205.547,33.8418 199.435,29.7672 199.157,25.2294 195.268,21.5254 189.063,25.9703 178.137,25.9703 176.377,31.8969 180.452,33.9342 180.266,38.8421 178.785,39.6757 176.562,38.8421 175.821,40.7869 171.098,41.5278 168.969,45.4172 163.968,46.2504 162.764,49.3066 167.025,51.8994 169.987,48.2877 173.507,50.2326 168.876,54.3996 169.432,57.4557 165.913,59.5854 169.339,62.6412 175.359,61.8079 175.636,64.7713 172.765,68.0122 172.21,71.7164 173.136,73.9389 170.358,76.0686 170.172,80.1432 171.376,80.6988 171.644,83.6374 174.222,85.3054 176.193,82.1209 181.35,83.4857 182.29,81.6054 184.231,82.5759 187.719,79.2398 191.359,82.4239 193.937,80.3012 195.453,81.8175 198.487,77.5714 202.126,77.5714"/>
<polygon class="fil6 str0" id="polygon26" points="113.962,49.6769 117.296,48.8433 124.334,53.3808 128.038,52.8255 129.797,54.5848 132.946,52.8255 137.021,54.9552 139.984,51.3434 151.096,49.5842 151.188,52.9179 162.764,49.3066 167.025,51.8994 169.987,48.2877 173.507,50.2326 168.876,54.3996 169.432,57.4557 165.913,59.5854 169.339,62.6412 175.359,61.8079 175.636,64.7713 172.765,68.0122 172.21,71.7164 173.136,73.9389 170.358,76.0686 170.172,80.1432 171.376,80.6988 171.644,83.6374 167.549,83.6374 166.185,79.6945 162.301,76.9946 158.875,79.8651 156.467,77.5503 152.208,77.0871 147.021,72.3644 144.243,74.8649 139.799,74.7721 140.354,79.4024 137.484,80.6988 135.909,77.9207 131.742,81.81 130.446,78.7543 122.297,82.5509 119.797,81.0693 117.945,84.5882 113.684,84.9586 108.314,80.9765 104.918,83.334 102.188,83.4857 100.369,85.6088 97.943,85.9121 92.4833,84.699 90.3604,82.5759 92.0282,80.1495 94.9785,81.9953 94.4233,76.3466 97.757,77.643 102.943,73.9389 103.128,70.0495 102.017,68.9383 104.702,60.8819 108.406,61.9928 108.685,58.937 107.851,55.1404 113.036,55.1404"/>
<polygon class="fil2 str0" id="polygon28" points="126.464,63.382 123.778,62.7336 122.575,64.2157 119.704,63.1968 116.833,66.2529 117.667,69.2159 114.425,70.6052 115.259,73.3833 118.593,73.8461 119.334,77.0871 125.63,77.9207 129.242,75.0502 127.761,73.3833 129.334,71.994 129.15,69.0311 126.648,67.4566" style="fill:#aaccff"/>
<polygon class="fil7 str0" id="polygon30" points="59.4238,25.2524 60.0302,29.8018 58.0589,29.6504 58.0589,33.2901 60.0302,35.5645 59.1204,40.4173 55.4808,42.5406 62.4566,48.3033 60.9404,50.1228 62.76,52.3975 60.637,58.3119 62.76,58.6153 60.637,64.2262 64.428,62.7099 63.2151,67.5624 66.551,68.9274 66.8544,74.3866 62.76,77.4194 68.6744,77.8745 69.1291,81.3624 72.4657,80.3012 75.1951,82.1209 78.0763,75.7514 83.2328,76.3583 83.8396,79.3911 92.0282,80.1495 94.9785,81.9953 94.4233,76.3466 97.757,77.643 102.943,73.9389 103.128,70.0495 102.017,68.9383 104.702,60.8819 108.406,61.9928 108.685,58.937 107.851,55.1404 113.036,55.1404 113.962,49.6769 111.055,49.2963 111.169,45.7368 109.447,43.8998 112.432,40.7996 120.355,40.57 119.781,33.7956 116.795,27.1362 119.895,23.8067 115.991,22.7731 116.336,17.2619 114.04,16.6876 109.906,23.2324 101.869,29.0882 98.6535,27.8252 96.4718,30.925 91.9944,32.303 91.8794,30.0064 85.2203,31.3844 85.1053,26.2176 78.446,24.9546 72.8195,21.3953 67.6527,23.3471 67.7677,27.7102 61.7973,28.0548"/>
<polygon class="fil8 str0" id="polygon32" points="177.982,26.4906 177.419,25.0693 178.798,21.51 175.812,20.1322 172.482,20.7064 172.368,17.6063 168.349,13.5876 169.841,7.6172 167.66,4.7466 165.708,4.5168 164.674,3.254 162.263,8.4207 158.59,12.2099 155.489,10.1429 150.093,11.5209 148.025,9.6838 152.504,8.765 152.849,3.5983 146.649,1.4168 141.711,7.1578 141.825,10.0282 133.214,9.4542 134.478,3.943 129.081,3.943 122.651,7.3874 123.914,11.9803 126.325,14.7358 124.833,17.3767 120.355,16.6876 120.47,13.9321 114.04,14.2764 114.04,16.6876 116.336,17.2619 115.991,22.7731 119.895,23.8067 116.795,27.1362 119.851,34.6225 120.355,40.57 112.432,40.7996 109.447,43.8998 111.169,45.7368 111.055,49.2963 113.944,49.7856 117.296,48.8433 124.334,53.3808 128.038,52.8255 129.797,54.5848 132.946,52.8255 137.021,54.9552 139.984,51.3434 151.096,49.5842 151.188,52.9179 162.764,49.3066 163.968,46.2504 168.969,45.4172 171.098,41.5278 175.821,40.7869 176.562,38.8421 178.785,39.6757 180.266,38.8421 180.452,33.9342 176.377,31.8969"/>
<polygon class="fil9 str0" id="polygon34" points="108.314,80.9765 104.918,83.334 104.766,90.1582 107.497,92.2812 109.62,89.0967 111.743,88.7933 111.592,92.2812 115.382,92.5846 114.927,95.314 118.719,97.2857 119.932,99.8638 129.334,99.7118 129.334,101.38 131.761,102.29 136.158,101.683 136.31,97.8921 142.073,98.8023 140.814,94.8847 143.741,95.314 146.319,93.7978 147.38,96.2242 154.66,92.888 157.996,92.1295 161.483,89.8548 163.152,91.068 163.455,81.5141 166.185,79.6945 162.301,76.9946 158.875,79.8651 156.467,77.5503 152.208,77.0871 147.021,72.3644 144.243,74.8649 139.799,74.7721 140.354,79.4024 137.484,80.6988 135.909,77.9207 131.742,81.81 130.446,78.7543 122.297,82.5509 119.797,81.0693 117.945,84.5882 113.684,84.9586"/>















</g>
</svg>